<mxfile host="Electron" modified="2023-07-17T17:39:46.633Z" agent="Mozilla/5.0 (Windows NT 10.0; Win64; x64) AppleWebKit/537.36 (KHTML, like Gecko) draw.io/21.6.1 Chrome/112.0.5615.204 Electron/24.6.1 Safari/537.36" etag="OdxuvV4b53c39KHNwwPZ" version="21.6.1" type="device">
  <diagram name="Страница 1" id="PvQUIaOtJdbrTUHnuK1A">
    <mxGraphModel dx="1192" dy="636" grid="1" gridSize="10" guides="1" tooltips="1" connect="1" arrows="1" fold="1" page="1" pageScale="1" pageWidth="827" pageHeight="1169" math="0" shadow="0">
      <root>
        <mxCell id="0" />
        <mxCell id="1" parent="0" />
        <mxCell id="vOYt-45JVJmEp5dB-E2m-3" value="" style="edgeStyle=orthogonalEdgeStyle;rounded=0;orthogonalLoop=1;jettySize=auto;html=1;" edge="1" parent="1" source="vOYt-45JVJmEp5dB-E2m-1" target="vOYt-45JVJmEp5dB-E2m-2">
          <mxGeometry relative="1" as="geometry" />
        </mxCell>
        <mxCell id="vOYt-45JVJmEp5dB-E2m-1" value="Старт" style="ellipse;whiteSpace=wrap;html=1;" vertex="1" parent="1">
          <mxGeometry x="310" y="20" width="120" height="80" as="geometry" />
        </mxCell>
        <mxCell id="vOYt-45JVJmEp5dB-E2m-5" value="" style="edgeStyle=orthogonalEdgeStyle;rounded=0;orthogonalLoop=1;jettySize=auto;html=1;" edge="1" parent="1" source="vOYt-45JVJmEp5dB-E2m-2" target="vOYt-45JVJmEp5dB-E2m-4">
          <mxGeometry relative="1" as="geometry" />
        </mxCell>
        <mxCell id="vOYt-45JVJmEp5dB-E2m-2" value="Номер дня" style="whiteSpace=wrap;html=1;" vertex="1" parent="1">
          <mxGeometry x="310" y="190" width="120" height="60" as="geometry" />
        </mxCell>
        <mxCell id="vOYt-45JVJmEp5dB-E2m-7" value="" style="edgeStyle=orthogonalEdgeStyle;rounded=0;orthogonalLoop=1;jettySize=auto;html=1;" edge="1" parent="1" source="vOYt-45JVJmEp5dB-E2m-4" target="vOYt-45JVJmEp5dB-E2m-6">
          <mxGeometry relative="1" as="geometry" />
        </mxCell>
        <mxCell id="vOYt-45JVJmEp5dB-E2m-4" value="Присваеваем номер дня" style="shape=parallelogram;perimeter=parallelogramPerimeter;whiteSpace=wrap;html=1;fixedSize=1;" vertex="1" parent="1">
          <mxGeometry x="310" y="330" width="120" height="60" as="geometry" />
        </mxCell>
        <mxCell id="vOYt-45JVJmEp5dB-E2m-9" value="" style="edgeStyle=orthogonalEdgeStyle;rounded=0;orthogonalLoop=1;jettySize=auto;html=1;" edge="1" parent="1" source="vOYt-45JVJmEp5dB-E2m-6">
          <mxGeometry relative="1" as="geometry">
            <mxPoint x="80" y="560" as="targetPoint" />
          </mxGeometry>
        </mxCell>
        <mxCell id="vOYt-45JVJmEp5dB-E2m-13" value="" style="edgeStyle=orthogonalEdgeStyle;rounded=0;orthogonalLoop=1;jettySize=auto;html=1;" edge="1" parent="1" source="vOYt-45JVJmEp5dB-E2m-6" target="vOYt-45JVJmEp5dB-E2m-12">
          <mxGeometry relative="1" as="geometry" />
        </mxCell>
        <mxCell id="vOYt-45JVJmEp5dB-E2m-6" value="Проверяем номер дня что бы был между 0 и 8 не включая границы" style="rhombus;whiteSpace=wrap;html=1;" vertex="1" parent="1">
          <mxGeometry x="230" y="450" width="280" height="80" as="geometry" />
        </mxCell>
        <mxCell id="vOYt-45JVJmEp5dB-E2m-10" value="нет" style="text;html=1;strokeColor=none;fillColor=none;align=center;verticalAlign=middle;whiteSpace=wrap;rounded=0;" vertex="1" parent="1">
          <mxGeometry x="100" y="440" width="60" height="30" as="geometry" />
        </mxCell>
        <mxCell id="vOYt-45JVJmEp5dB-E2m-69" style="edgeStyle=orthogonalEdgeStyle;rounded=0;orthogonalLoop=1;jettySize=auto;html=1;" edge="1" parent="1" source="vOYt-45JVJmEp5dB-E2m-11">
          <mxGeometry relative="1" as="geometry">
            <mxPoint x="820" y="1160" as="targetPoint" />
          </mxGeometry>
        </mxCell>
        <mxCell id="vOYt-45JVJmEp5dB-E2m-11" value="Вы неверно ввели число" style="shape=document;whiteSpace=wrap;html=1;boundedLbl=1;" vertex="1" parent="1">
          <mxGeometry x="20" y="560" width="120" height="80" as="geometry" />
        </mxCell>
        <mxCell id="vOYt-45JVJmEp5dB-E2m-17" value="" style="edgeStyle=orthogonalEdgeStyle;rounded=0;orthogonalLoop=1;jettySize=auto;html=1;" edge="1" parent="1" source="vOYt-45JVJmEp5dB-E2m-12" target="vOYt-45JVJmEp5dB-E2m-19">
          <mxGeometry relative="1" as="geometry">
            <mxPoint x="440" y="710" as="targetPoint" />
            <Array as="points">
              <mxPoint x="505" y="660" />
            </Array>
          </mxGeometry>
        </mxCell>
        <mxCell id="vOYt-45JVJmEp5dB-E2m-35" value="" style="edgeStyle=orthogonalEdgeStyle;rounded=0;orthogonalLoop=1;jettySize=auto;html=1;" edge="1" parent="1" source="vOYt-45JVJmEp5dB-E2m-12" target="vOYt-45JVJmEp5dB-E2m-34">
          <mxGeometry relative="1" as="geometry">
            <Array as="points">
              <mxPoint x="750" y="660" />
              <mxPoint x="750" y="670" />
              <mxPoint x="765" y="670" />
            </Array>
          </mxGeometry>
        </mxCell>
        <mxCell id="vOYt-45JVJmEp5dB-E2m-12" value="day ==1" style="rhombus;whiteSpace=wrap;html=1;" vertex="1" parent="1">
          <mxGeometry x="530" y="620" width="200" height="80" as="geometry" />
        </mxCell>
        <mxCell id="vOYt-45JVJmEp5dB-E2m-15" value="да" style="text;html=1;strokeColor=none;fillColor=none;align=center;verticalAlign=middle;whiteSpace=wrap;rounded=0;" vertex="1" parent="1">
          <mxGeometry x="520" y="440" width="60" height="30" as="geometry" />
        </mxCell>
        <mxCell id="vOYt-45JVJmEp5dB-E2m-18" value="нет" style="text;html=1;strokeColor=none;fillColor=none;align=center;verticalAlign=middle;whiteSpace=wrap;rounded=0;" vertex="1" parent="1">
          <mxGeometry x="480" y="630" width="60" height="30" as="geometry" />
        </mxCell>
        <mxCell id="vOYt-45JVJmEp5dB-E2m-23" value="" style="edgeStyle=orthogonalEdgeStyle;rounded=0;orthogonalLoop=1;jettySize=auto;html=1;" edge="1" parent="1" source="vOYt-45JVJmEp5dB-E2m-19" target="vOYt-45JVJmEp5dB-E2m-22">
          <mxGeometry relative="1" as="geometry">
            <Array as="points">
              <mxPoint x="405" y="710" />
            </Array>
          </mxGeometry>
        </mxCell>
        <mxCell id="vOYt-45JVJmEp5dB-E2m-66" style="edgeStyle=orthogonalEdgeStyle;rounded=0;orthogonalLoop=1;jettySize=auto;html=1;entryX=0.75;entryY=0;entryDx=0;entryDy=0;" edge="1" parent="1" source="vOYt-45JVJmEp5dB-E2m-19" target="vOYt-45JVJmEp5dB-E2m-39">
          <mxGeometry relative="1" as="geometry">
            <mxPoint x="600" y="740" as="targetPoint" />
            <Array as="points">
              <mxPoint x="630" y="710" />
              <mxPoint x="630" y="741" />
              <mxPoint x="631" y="741" />
            </Array>
          </mxGeometry>
        </mxCell>
        <mxCell id="vOYt-45JVJmEp5dB-E2m-19" value="day ==2" style="rhombus;whiteSpace=wrap;html=1;" vertex="1" parent="1">
          <mxGeometry x="420" y="670" width="170" height="80" as="geometry" />
        </mxCell>
        <mxCell id="vOYt-45JVJmEp5dB-E2m-26" value="" style="edgeStyle=orthogonalEdgeStyle;rounded=0;orthogonalLoop=1;jettySize=auto;html=1;" edge="1" parent="1" source="vOYt-45JVJmEp5dB-E2m-22" target="vOYt-45JVJmEp5dB-E2m-25">
          <mxGeometry relative="1" as="geometry">
            <Array as="points">
              <mxPoint x="305" y="780" />
            </Array>
          </mxGeometry>
        </mxCell>
        <mxCell id="vOYt-45JVJmEp5dB-E2m-22" value="day == 3" style="rhombus;whiteSpace=wrap;html=1;" vertex="1" parent="1">
          <mxGeometry x="320" y="740" width="170" height="80" as="geometry" />
        </mxCell>
        <mxCell id="vOYt-45JVJmEp5dB-E2m-28" value="" style="edgeStyle=orthogonalEdgeStyle;rounded=0;orthogonalLoop=1;jettySize=auto;html=1;" edge="1" parent="1" source="vOYt-45JVJmEp5dB-E2m-25" target="vOYt-45JVJmEp5dB-E2m-27">
          <mxGeometry relative="1" as="geometry">
            <Array as="points">
              <mxPoint x="205" y="850" />
            </Array>
          </mxGeometry>
        </mxCell>
        <mxCell id="vOYt-45JVJmEp5dB-E2m-47" value="" style="edgeStyle=orthogonalEdgeStyle;rounded=0;orthogonalLoop=1;jettySize=auto;html=1;" edge="1" parent="1" source="vOYt-45JVJmEp5dB-E2m-25" target="vOYt-45JVJmEp5dB-E2m-46">
          <mxGeometry relative="1" as="geometry" />
        </mxCell>
        <mxCell id="vOYt-45JVJmEp5dB-E2m-25" value="day == 4" style="rhombus;whiteSpace=wrap;html=1;" vertex="1" parent="1">
          <mxGeometry x="220" y="810" width="170" height="80" as="geometry" />
        </mxCell>
        <mxCell id="vOYt-45JVJmEp5dB-E2m-30" value="" style="edgeStyle=orthogonalEdgeStyle;rounded=0;orthogonalLoop=1;jettySize=auto;html=1;" edge="1" parent="1" source="vOYt-45JVJmEp5dB-E2m-27" target="vOYt-45JVJmEp5dB-E2m-29">
          <mxGeometry relative="1" as="geometry">
            <Array as="points">
              <mxPoint x="95" y="920" />
            </Array>
          </mxGeometry>
        </mxCell>
        <mxCell id="vOYt-45JVJmEp5dB-E2m-49" value="" style="edgeStyle=orthogonalEdgeStyle;rounded=0;orthogonalLoop=1;jettySize=auto;html=1;" edge="1" parent="1" source="vOYt-45JVJmEp5dB-E2m-27" target="vOYt-45JVJmEp5dB-E2m-48">
          <mxGeometry relative="1" as="geometry" />
        </mxCell>
        <mxCell id="vOYt-45JVJmEp5dB-E2m-27" value="day == 5" style="rhombus;whiteSpace=wrap;html=1;" vertex="1" parent="1">
          <mxGeometry x="110" y="860" width="170" height="80" as="geometry" />
        </mxCell>
        <mxCell id="vOYt-45JVJmEp5dB-E2m-32" value="" style="edgeStyle=orthogonalEdgeStyle;rounded=0;orthogonalLoop=1;jettySize=auto;html=1;" edge="1" parent="1" source="vOYt-45JVJmEp5dB-E2m-29" target="vOYt-45JVJmEp5dB-E2m-31">
          <mxGeometry relative="1" as="geometry" />
        </mxCell>
        <mxCell id="vOYt-45JVJmEp5dB-E2m-53" value="" style="edgeStyle=orthogonalEdgeStyle;rounded=0;orthogonalLoop=1;jettySize=auto;html=1;" edge="1" parent="1" source="vOYt-45JVJmEp5dB-E2m-29" target="vOYt-45JVJmEp5dB-E2m-52">
          <mxGeometry relative="1" as="geometry" />
        </mxCell>
        <mxCell id="vOYt-45JVJmEp5dB-E2m-29" value="day ==6" style="rhombus;whiteSpace=wrap;html=1;" vertex="1" parent="1">
          <mxGeometry x="50" y="940" width="170" height="80" as="geometry" />
        </mxCell>
        <mxCell id="vOYt-45JVJmEp5dB-E2m-56" value="" style="edgeStyle=orthogonalEdgeStyle;rounded=0;orthogonalLoop=1;jettySize=auto;html=1;" edge="1" parent="1" source="vOYt-45JVJmEp5dB-E2m-31" target="vOYt-45JVJmEp5dB-E2m-54">
          <mxGeometry relative="1" as="geometry" />
        </mxCell>
        <mxCell id="vOYt-45JVJmEp5dB-E2m-57" style="edgeStyle=orthogonalEdgeStyle;rounded=0;orthogonalLoop=1;jettySize=auto;html=1;entryX=0.192;entryY=0.954;entryDx=0;entryDy=0;entryPerimeter=0;exitX=0;exitY=0.5;exitDx=0;exitDy=0;" edge="1" parent="1" source="vOYt-45JVJmEp5dB-E2m-31" target="vOYt-45JVJmEp5dB-E2m-33">
          <mxGeometry relative="1" as="geometry">
            <Array as="points">
              <mxPoint x="30" y="1160" />
              <mxPoint x="390" y="1160" />
              <mxPoint x="390" y="1116" />
            </Array>
          </mxGeometry>
        </mxCell>
        <mxCell id="vOYt-45JVJmEp5dB-E2m-31" value="day == 7" style="rhombus;whiteSpace=wrap;html=1;" vertex="1" parent="1">
          <mxGeometry x="30" y="1050" width="170" height="80" as="geometry" />
        </mxCell>
        <mxCell id="vOYt-45JVJmEp5dB-E2m-33" value="end" style="ellipse;whiteSpace=wrap;html=1;aspect=fixed;" vertex="1" parent="1">
          <mxGeometry x="680" y="1070" width="80" height="80" as="geometry" />
        </mxCell>
        <mxCell id="vOYt-45JVJmEp5dB-E2m-68" style="edgeStyle=orthogonalEdgeStyle;rounded=0;orthogonalLoop=1;jettySize=auto;html=1;entryX=1;entryY=0.663;entryDx=0;entryDy=0;entryPerimeter=0;" edge="1" parent="1" source="vOYt-45JVJmEp5dB-E2m-34" target="vOYt-45JVJmEp5dB-E2m-33">
          <mxGeometry relative="1" as="geometry" />
        </mxCell>
        <mxCell id="vOYt-45JVJmEp5dB-E2m-34" value="понедельник" style="shape=document;whiteSpace=wrap;html=1;boundedLbl=1;" vertex="1" parent="1">
          <mxGeometry x="720" y="690" width="90" height="40" as="geometry" />
        </mxCell>
        <mxCell id="vOYt-45JVJmEp5dB-E2m-67" style="edgeStyle=orthogonalEdgeStyle;rounded=0;orthogonalLoop=1;jettySize=auto;html=1;" edge="1" parent="1" source="vOYt-45JVJmEp5dB-E2m-39">
          <mxGeometry relative="1" as="geometry">
            <mxPoint x="740" y="1082" as="targetPoint" />
          </mxGeometry>
        </mxCell>
        <mxCell id="vOYt-45JVJmEp5dB-E2m-39" value="вторник" style="shape=document;whiteSpace=wrap;html=1;boundedLbl=1;" vertex="1" parent="1">
          <mxGeometry x="575" y="760" width="75" height="30" as="geometry" />
        </mxCell>
        <mxCell id="vOYt-45JVJmEp5dB-E2m-65" style="edgeStyle=orthogonalEdgeStyle;rounded=0;orthogonalLoop=1;jettySize=auto;html=1;" edge="1" parent="1" source="vOYt-45JVJmEp5dB-E2m-42">
          <mxGeometry relative="1" as="geometry">
            <mxPoint x="700" y="1080" as="targetPoint" />
          </mxGeometry>
        </mxCell>
        <mxCell id="vOYt-45JVJmEp5dB-E2m-42" value="среда" style="shape=document;whiteSpace=wrap;html=1;boundedLbl=1;" vertex="1" parent="1">
          <mxGeometry x="575" y="835" width="90" height="30" as="geometry" />
        </mxCell>
        <mxCell id="vOYt-45JVJmEp5dB-E2m-64" style="edgeStyle=orthogonalEdgeStyle;rounded=0;orthogonalLoop=1;jettySize=auto;html=1;entryX=0.5;entryY=0;entryDx=0;entryDy=0;" edge="1" parent="1" source="vOYt-45JVJmEp5dB-E2m-46" target="vOYt-45JVJmEp5dB-E2m-33">
          <mxGeometry relative="1" as="geometry" />
        </mxCell>
        <mxCell id="vOYt-45JVJmEp5dB-E2m-46" value="четверг" style="shape=document;whiteSpace=wrap;html=1;boundedLbl=1;" vertex="1" parent="1">
          <mxGeometry x="420" y="865" width="85" height="30" as="geometry" />
        </mxCell>
        <mxCell id="vOYt-45JVJmEp5dB-E2m-63" style="edgeStyle=orthogonalEdgeStyle;rounded=0;orthogonalLoop=1;jettySize=auto;html=1;entryX=0.4;entryY=0.054;entryDx=0;entryDy=0;entryPerimeter=0;" edge="1" parent="1" source="vOYt-45JVJmEp5dB-E2m-48" target="vOYt-45JVJmEp5dB-E2m-33">
          <mxGeometry relative="1" as="geometry" />
        </mxCell>
        <mxCell id="vOYt-45JVJmEp5dB-E2m-48" value="пятница" style="shape=document;whiteSpace=wrap;html=1;boundedLbl=1;" vertex="1" parent="1">
          <mxGeometry x="314" y="920" width="100" height="40" as="geometry" />
        </mxCell>
        <mxCell id="vOYt-45JVJmEp5dB-E2m-62" style="edgeStyle=orthogonalEdgeStyle;rounded=0;orthogonalLoop=1;jettySize=auto;html=1;entryX=0.067;entryY=0.329;entryDx=0;entryDy=0;entryPerimeter=0;" edge="1" parent="1" source="vOYt-45JVJmEp5dB-E2m-52" target="vOYt-45JVJmEp5dB-E2m-33">
          <mxGeometry relative="1" as="geometry" />
        </mxCell>
        <mxCell id="vOYt-45JVJmEp5dB-E2m-52" value="суббота" style="shape=document;whiteSpace=wrap;html=1;boundedLbl=1;" vertex="1" parent="1">
          <mxGeometry x="250" y="990" width="100" height="40" as="geometry" />
        </mxCell>
        <mxCell id="vOYt-45JVJmEp5dB-E2m-61" style="edgeStyle=orthogonalEdgeStyle;rounded=0;orthogonalLoop=1;jettySize=auto;html=1;entryX=0;entryY=0.5;entryDx=0;entryDy=0;" edge="1" parent="1" source="vOYt-45JVJmEp5dB-E2m-54" target="vOYt-45JVJmEp5dB-E2m-33">
          <mxGeometry relative="1" as="geometry" />
        </mxCell>
        <mxCell id="vOYt-45JVJmEp5dB-E2m-54" value="воскресенье" style="shape=document;whiteSpace=wrap;html=1;boundedLbl=1;" vertex="1" parent="1">
          <mxGeometry x="220" y="1065" width="110" height="35" as="geometry" />
        </mxCell>
      </root>
    </mxGraphModel>
  </diagram>
</mxfile>
